# xmcd CD database file
#
# Track frame offsets:
#	150
#	20975
#	42132
#	72550
#	90650
#	114202
#	130995
#	160770
#	193095
#	201955
#	227895
#	231145
#
# Disc length: 3412 seconds
#
# Revision: 0
# Processed by: cddbd v1.5.1PL0 Copyright (c) Steve Scherf et al.
# Submitted via: CDex 1.51
#
DISCID=a60d520c
DTITLE=みつめてナイト - みつめてナイト Concerto
DYEAR=1998
DGENRE=Game
TTITLE0=大きな陽の下で
TTITLE1=冷たいくちびる
TTITLE2=いつか見た風景
TTITLE3=不安な前兆
TTITLE4=カクテルでもいかが？
TTITLE5=幸せの予感
TTITLE6=まだ見ぬ雪
TTITLE7=新たなる旅・入国
TTITLE8=新たなる旅・旅立ち
TTITLE9=失われた音色
TTITLE10=序章・みつめてナイト
TTITLE11=理性が欲望に負けるとき
EXTD=YEAR: 1998
EXTT0=
EXTT1=
EXTT2=
EXTT3=
EXTT4=
EXTT5=
EXTT6=
EXTT7=
EXTT8=
EXTT9=
EXTT10=
EXTT11=
PLAYORDER=
